<svg width="176" height="40" fill="none" xmlns="http://www.w3.org/2000/svg"><path d="M95.619 8.602c-6.205 0-11.237 5.104-11.237 11.398s5.03 11.398 11.237 11.398c6.205 0 11.237-5.104 11.237-11.398s-5.03-11.398-11.237-11.398Zm0 4.134c3.8 0 6.89 3.258 6.89 7.264s-3.09 7.264-6.89 7.264-6.89-3.258-6.89-7.264 3.09-7.264 6.89-7.264ZM67.857 9.095H50.953v3.765h6.493v18.11h4.102V12.86h6.31V9.095ZM71.594 9.095v3.765h6.141v10.582a4.122 4.122 0 0 1-4.116 4.12 4.122 4.122 0 0 1-4.116-4.12V22.3h-3.828v1.14c0 4.394 3.557 7.955 7.946 7.955 4.388 0 7.947-3.56 7.947-7.954V9.095h-9.974ZM145.989 12.86V9.093h-15.738l-.143.002V30.97h15.881v-3.765H134.21V21.75h10.054v-3.765H134.21V12.86h11.779ZM14.534 19.805l3.176-10.71 3.174 10.71h-6.35Zm9.657 11.162h4.102L21.812 9.095h-8.206L7.123 30.967h4.104l2.191-7.397H22l2.191 7.397ZM153.191 12.927h8.332a2.763 2.763 0 0 1 0 5.525h-8.33l-.002-5.525Zm8.541 9.35a6.589 6.589 0 0 0 6.379-6.585 6.593 6.593 0 0 0-6.59-6.597h-12.27l.005 21.875h3.937l-.002-8.683 8.541-.01Z" fill="#292D45"/><path d="m161.807 22.286 2.627 8.681h4.273l-2.629-8.69h-4.275M34.22 12.927h8.33a2.763 2.763 0 0 1 0 5.525h-8.33v-5.525Zm8.542 9.35a6.59 6.59 0 0 0 6.378-6.585 6.593 6.593 0 0 0-6.59-6.597H30.28l.005 21.875h3.938l-.003-8.683 8.542-.01Z" fill="#292D45"/><path d="m42.84 22.286 2.626 8.681h4.271l-2.629-8.69h-4.275M127.042 13.541V8.995l-13.316 6.48v-6.38h-3.962V30.97h3.962v-6.38l13.316 6.48v-4.548l-13.316-6.48v-.017l13.316-6.483Z" fill="#292D45"/></svg>