<svg width="24" height="24" fill="none" xmlns="http://www.w3.org/2000/svg"><path fill-rule="evenodd" clip-rule="evenodd" d="M3 6a1 1 0 0 1 1-1h9a1 1 0 1 1 0 2H4a1 1 0 0 1-1-1ZM3 12a1 1 0 0 1 1-1h7a1 1 0 1 1 0 2H4a1 1 0 0 1-1-1ZM3 18a1 1 0 0 1 1-1h7a1 1 0 1 1 0 2H4a1 1 0 0 1-1-1ZM14.293 14.293a1 1 0 0 1 1.414 0L18 16.586l2.293-2.293a1 1 0 0 1 1.414 1.414l-3 3a1 1 0 0 1-1.414 0l-3-3a1 1 0 0 1 0-1.414Z" fill="#8E91A0"/><path fill-rule="evenodd" clip-rule="evenodd" d="M18 5a1 1 0 0 1 1 1v12a1 1 0 1 1-2 0V6a1 1 0 0 1 1-1Z" fill="#8E91A0"/></svg>