<svg width="40" height="40" fill="none" xmlns="http://www.w3.org/2000/svg"><circle cx="20" cy="20" r="20" fill="url(#a)"/><path fill-rule="evenodd" clip-rule="evenodd" d="M20 12a3 3 0 1 0 0 6 3 3 0 0 0 0-6Zm-5 3a5 5 0 1 1 10 0 5 5 0 0 1-10 0ZM18 24a3 3 0 0 0-3 3v2a1 1 0 1 1-2 0v-2a5 5 0 0 1 5-5h4a5 5 0 0 1 5 5v2a1 1 0 1 1-2 0v-2a3 3 0 0 0-3-3h-4Z" fill="#8E91A0"/><defs><linearGradient id="a" x1="0" y1="20" x2="40" y2="20" gradientUnits="userSpaceOnUse"><stop stop-color="#FDFBFB"/><stop offset="1" stop-color="#EBEDEE"/></linearGradient></defs></svg>